<svg xmlns="http://www.w3.org/2000/svg">
  <symbol id="i-arrow-right" viewBox="0 0 24 24" fill="none" stroke="currentColor" stroke-width="2" stroke-linecap="round" stroke-linejoin="round"><path d="M5 12h14"/><path d="m12 5 7 7-7 7"/></symbol>
  <symbol id="i-chevron-down" viewBox="0 0 24 24" fill="none" stroke="currentColor" stroke-width="2" stroke-linecap="round" stroke-linejoin="round"><path d="m6 9 6 6 6-6"/></symbol>
  <symbol id="i-search" viewBox="0 0 24 24" fill="none" stroke="currentColor" stroke-width="2" stroke-linecap="round" stroke-linejoin="round"><path d="m21 21-4.34-4.34"/><circle cx="11" cy="11" r="8"/></symbol>
  <symbol id="i-grid" viewBox="0 0 24 24" fill="none" stroke="currentColor" stroke-width="2" stroke-linecap="round" stroke-linejoin="round"><rect width="7" height="7" x="3" y="3" rx="1"/><rect width="7" height="7" x="14" y="3" rx="1"/><rect width="7" height="7" x="14" y="14" rx="1"/><rect width="7" height="7" x="3" y="14" rx="1"/></symbol>
  <symbol id="i-flame" viewBox="0 0 24 24" fill="none" stroke="currentColor" stroke-width="2" stroke-linecap="round" stroke-linejoin="round"><path d="M12 3q1 4 4 6.5t3 5.5a1 1 0 0 1-14 0 5 5 0 0 1 1-3 1 1 0 0 0 5 0c0-2-1.5-3-1.5-5q0-2 2.5-4"/></symbol>
  <symbol id="i-file-text" viewBox="0 0 24 24" fill="none" stroke="currentColor" stroke-width="2" stroke-linecap="round" stroke-linejoin="round"><path d="M6 22a2 2 0 0 1-2-2V4a2 2 0 0 1 2-2h8a2.4 2.4 0 0 1 1.704.706l3.588 3.588A2.4 2.4 0 0 1 20 8v12a2 2 0 0 1-2 2z"/><path d="M14 2v5a1 1 0 0 0 1 1h5"/><path d="M10 9H8"/><path d="M16 13H8"/><path d="M16 17H8"/></symbol>
  <symbol id="i-ghost" viewBox="0 0 24 24" fill="none" stroke="currentColor" stroke-width="2" stroke-linecap="round" stroke-linejoin="round"><path d="M15 10v1"/><path d="M7.528 20.472a1.6 1.6 0 012.277 0l1.057 1.056a1.6 1.6 0 002.276 0l1.057-1.056a1.6 1.6 0 012.277 0l1.114 1.114a1.4 1.4 0 002.414-1V10a8 8 0 00-16 0v10.586a1.4 1.4 0 002.414 1z"/><path d="M9 10v1"/></symbol>
  <symbol id="i-tree" viewBox="0 0 24 24" fill="none" stroke="currentColor" stroke-width="2" stroke-linecap="round" stroke-linejoin="round"><path d="m17 14 3 3.3a1 1 0 0 1-.7 1.7H4.7a1 1 0 0 1-.7-1.7L7 14h-.3a1 1 0 0 1-.7-1.7L9 9h-.2A1 1 0 0 1 8 7.3L12 3l4 4.3a1 1 0 0 1-.8 1.7H15l3 3.3a1 1 0 0 1-.7 1.7H17Z"/><path d="M12 22v-3"/></symbol>
  <symbol id="i-shield-check" viewBox="0 0 24 24" fill="none" stroke="currentColor" stroke-width="2" stroke-linecap="round" stroke-linejoin="round"><path d="M20 13c0 5-3.5 7.5-7.66 8.95a1 1 0 0 1-.67-.01C7.5 20.5 4 18 4 13V6a1 1 0 0 1 1-1c2 0 4.5-1.2 6.24-2.72a1.17 1.17 0 0 1 1.52 0C14.51 3.81 17 5 19 5a1 1 0 0 1 1 1z"/><path d="m9 12 2 2 4-4"/></symbol>
  <symbol id="i-lock" viewBox="0 0 24 24" fill="none" stroke="currentColor" stroke-width="2" stroke-linecap="round" stroke-linejoin="round"><circle cx="12" cy="16" r="1"/><rect x="3" y="10" width="18" height="12" rx="2"/><path d="M7 10V7a5 5 0 0 1 10 0v3"/></symbol>
  <symbol id="i-zap" viewBox="0 0 24 24" fill="none" stroke="currentColor" stroke-width="2" stroke-linecap="round" stroke-linejoin="round"><path d="M15.914 4a1.5 1.5 0 00-2.474-1.561l-9 9A1.5 1.5 0 005.5 14h4.002a.5.5 0 01.471.666L8.086 20a1.5 1.5 0 002.475 1.56l9-9A1.5 1.5 0 0018.5 10h-3.997a.5.5 0 01-.472-.667z"/></symbol>
  <symbol id="i-heart" viewBox="0 0 24 24" fill="none" stroke="currentColor" stroke-width="2" stroke-linecap="round" stroke-linejoin="round"><path d="M2 9.5a5.5 5.5 0 0 1 9.591-3.676.56.56 0 0 0 .818 0A5.49 5.49 0 0 1 22 9.5c0 2.29-1.5 4-3 5.5l-5.492 5.313a2 2 0 0 1-3 .019L5 15c-1.5-1.5-3-3.2-3-5.5"/></symbol>
  <symbol id="i-globe" viewBox="0 0 24 24" fill="none" stroke="currentColor" stroke-width="2" stroke-linecap="round" stroke-linejoin="round"><circle cx="12" cy="12" r="10"/><path d="M12 2a14.5 14.5 0 0 0 0 20 14.5 14.5 0 0 0 0-20"/><path d="M2 12h20"/></symbol>
  <symbol id="i-star" viewBox="0 0 24 24" fill="none" stroke="currentColor" stroke-width="2" stroke-linecap="round" stroke-linejoin="round"><path d="M11.525 2.295a.53.53 0 0 1 .95 0l2.31 4.679a2.123 2.123 0 0 0 1.595 1.16l5.166.756a.53.53 0 0 1 .294.904l-3.736 3.638a2.123 2.123 0 0 0-.611 1.878l.882 5.14a.53.53 0 0 1-.771.56l-4.618-2.428a2.122 2.122 0 0 0-1.973 0L6.396 21.01a.53.53 0 0 1-.77-.56l.881-5.139a2.122 2.122 0 0 0-.611-1.879L2.16 9.795a.53.53 0 0 1 .294-.906l5.165-.755a2.122 2.122 0 0 0 1.597-1.16z"/></symbol>
  <symbol id="i-menu" viewBox="0 0 24 24" fill="none" stroke="currentColor" stroke-width="2" stroke-linecap="round" stroke-linejoin="round"><path d="M4 5h16"/><path d="M4 12h16"/><path d="M4 19h16"/></symbol>
  <symbol id="i-image" viewBox="0 0 24 24" fill="none" stroke="currentColor" stroke-width="2" stroke-linecap="round" stroke-linejoin="round"><rect width="18" height="18" x="3" y="3" rx="2" ry="2"/><circle cx="9" cy="9" r="2"/><path d="m21 15-3.086-3.086a2 2 0 0 0-2.828 0L6 21"/></symbol>
  <symbol id="i-gift" viewBox="0 0 24 24" fill="none" stroke="currentColor" stroke-width="2" stroke-linecap="round" stroke-linejoin="round"><path d="M12 7v14"/><path d="M20 11v8a2 2 0 0 1-2 2H6a2 2 0 0 1-2-2v-8"/><path d="M7.5 7a1 1 0 0 1 0-5A4.8 8 0 0 1 12 7a4.8 8 0 0 1 4.5-5 1 1 0 0 1 0 5"/><rect x="3" y="7" width="18" height="4" rx="1"/></symbol>
  <symbol id="i-upload" viewBox="0 0 24 24" fill="none" stroke="currentColor" stroke-width="2" stroke-linecap="round" stroke-linejoin="round"><path d="M12 3v12"/><path d="m17 8-5-5-5 5"/><path d="M21 15v4a2 2 0 0 1-2 2H5a2 2 0 0 1-2-2v-4"/></symbol>
  <symbol id="i-download" viewBox="0 0 24 24" fill="none" stroke="currentColor" stroke-width="2" stroke-linecap="round" stroke-linejoin="round"><path d="M12 15V3"/><path d="M21 15v4a2 2 0 0 1-2 2H5a2 2 0 0 1-2-2v-4"/><path d="m7 10 5 5 5-5"/></symbol>
  <symbol id="i-printer" viewBox="0 0 24 24" fill="none" stroke="currentColor" stroke-width="2" stroke-linecap="round" stroke-linejoin="round"><path d="M6 18H4a2 2 0 0 1-2-2v-5a2 2 0 0 1 2-2h16a2 2 0 0 1 2 2v5a2 2 0 0 1-2 2h-2"/><path d="M6 9V3a1 1 0 0 1 1-1h10a1 1 0 0 1 1 1v6"/><rect x="6" y="14" width="12" height="8" rx="1"/></symbol>
  <symbol id="i-copy" viewBox="0 0 24 24" fill="none" stroke="currentColor" stroke-width="2" stroke-linecap="round" stroke-linejoin="round"><rect width="14" height="14" x="8" y="8" rx="2" ry="2"/><path d="M4 16c-1.1 0-2-.9-2-2V4c0-1.1.9-2 2-2h10c1.1 0 2 .9 2 2"/></symbol>
  <symbol id="i-book-open" viewBox="0 0 24 24" fill="none" stroke="currentColor" stroke-width="2" stroke-linecap="round" stroke-linejoin="round"><path d="M12 5v16"/><path d="M20.001 19A2 2 0 0022 17V5a2 2 0 00-1.999-2L16 3.002A5 5 0 0012 5a5 5 0 00-4-2H4a2 2 0 00-2 2v12a2 2 0 001.999 2H8a5 5 0 014 2 5 5 0 014-2z"/></symbol>

  <symbol id="i-crop" viewBox="0 0 24 24" fill="none" stroke="currentColor" stroke-width="2" stroke-linecap="round" stroke-linejoin="round"><path d="M6 2v14a2 2 0 0 0 2 2h14"/><path d="M18 22V8a2 2 0 0 0-2-2H2"/></symbol>
  <symbol id="i-wallet" viewBox="0 0 24 24" fill="none" stroke="currentColor" stroke-width="2" stroke-linecap="round" stroke-linejoin="round"><path d="M3 11h3.75a2 2 0 0 1 1.6.8l.45.6a4 4 0 0 0 6.4 0l.45-.6a2 2 0 0 1 1.6-.8H21"/><path d="M3 7h18"/><rect x="3" y="3" width="18" height="18" rx="2"/></symbol>
  <symbol id="i-scissors" viewBox="0 0 24 24" fill="none" stroke="currentColor" stroke-width="2" stroke-linecap="round" stroke-linejoin="round"><circle cx="6" cy="6" r="3"/><path d="M8.12 8.12 12 12"/><path d="M20 4 8.12 15.88"/><circle cx="6" cy="18" r="3"/><path d="M14.8 14.8 20 20"/></symbol>
  <symbol id="i-images" viewBox="0 0 24 24" fill="none" stroke="currentColor" stroke-width="2" stroke-linecap="round" stroke-linejoin="round"><path d="m22 11-1.296-1.296a2.4 2.4 0 0 0-3.408 0L11 16"/><path d="M4 8a2 2 0 0 0-2 2v10a2 2 0 0 0 2 2h10a2 2 0 0 0 2-2"/><circle cx="13" cy="7" r="1" fill="currentColor"/><rect x="8" y="2" width="14" height="14" rx="2"/></symbol>
  <symbol id="i-notebook-tabs" viewBox="0 0 24 24" fill="none" stroke="currentColor" stroke-width="2" stroke-linecap="round" stroke-linejoin="round"><path d="M2 6h4"/><path d="M2 10h4"/><path d="M2 14h4"/><path d="M2 18h4"/><rect width="16" height="20" x="4" y="2" rx="2"/><path d="M15 2v20"/><path d="M15 7h5"/><path d="M15 12h5"/><path d="M15 17h5"/></symbol>

  <symbol id="i-id-card" viewBox="0 0 24 24" fill="none" stroke="currentColor" stroke-width="2" stroke-linecap="round" stroke-linejoin="round"><path d="M13 19a4 4 0 00-8 0"/><path d="M16 10h2"/><path d="M16 14h2"/><circle cx="9" cy="12" r="3"/><rect x="2" y="5" width="20" height="14" rx="2"/></symbol>
  <symbol id="i-barcode" viewBox="0 0 24 24" fill="none" stroke="currentColor" stroke-width="2" stroke-linecap="round" stroke-linejoin="round"><path d="M3 5v14"/><path d="M8 5v14"/><path d="M12 5v14"/><path d="M17 5v14"/><path d="M21 5v14"/></symbol>
  <symbol id="i-ruler" viewBox="0 0 24 24" fill="none" stroke="currentColor" stroke-width="2" stroke-linecap="round" stroke-linejoin="round"><path d="M21.3 15.3a2.4 2.4 0 0 1 0 3.4l-2.6 2.6a2.4 2.4 0 0 1-3.4 0L2.7 8.7a2.41 2.41 0 0 1 0-3.4l2.6-2.6a2.41 2.41 0 0 1 3.4 0Z"/><path d="m14.5 12.5 2-2"/><path d="m11.5 9.5 2-2"/><path d="m8.5 6.5 2-2"/><path d="m17.5 15.5 2-2"/></symbol>
  <symbol id="i-scan-line" viewBox="0 0 24 24" fill="none" stroke="currentColor" stroke-width="2" stroke-linecap="round" stroke-linejoin="round"><path d="M3 7V5a2 2 0 0 1 2-2h2"/><path d="M17 3h2a2 2 0 0 1 2 2v2"/><path d="M21 17v2a2 2 0 0 1-2 2h-2"/><path d="M7 21H5a2 2 0 0 1-2-2v-2"/><path d="M7 12h10"/></symbol>
  <symbol id="i-contact" viewBox="0 0 24 24" fill="none" stroke="currentColor" stroke-width="2" stroke-linecap="round" stroke-linejoin="round"><path d="M16 2v2"/><path d="M7 21v-2a2 2 0 012-2h6a2 2 0 012 2v2"/><path d="M8 2v2"/><circle cx="12" cy="10" r="3"/><rect x="3" y="3" width="18" height="18" rx="2"/></symbol>

  <symbol id="i-layout-grid" viewBox="0 0 24 24" fill="none" stroke="currentColor" stroke-width="2" stroke-linecap="round" stroke-linejoin="round"><rect width="7" height="7" x="3" y="3" rx="1"/><rect width="7" height="7" x="14" y="3" rx="1"/><rect width="7" height="7" x="14" y="14" rx="1"/><rect width="7" height="7" x="3" y="14" rx="1"/></symbol>
  <symbol id="i-file-scan" viewBox="0 0 24 24" fill="none" stroke="currentColor" stroke-width="2" stroke-linecap="round" stroke-linejoin="round"><path d="M20 10V8a2.4 2.4 0 0 0-.706-1.704l-3.588-3.588A2.4 2.4 0 0 0 14 2H6a2 2 0 0 0-2 2v16a2 2 0 0 0 2 2h4.35"/><path d="M14 2v5a1 1 0 0 0 1 1h5"/><path d="M16 14a2 2 0 0 0-2 2"/><path d="M16 22a2 2 0 0 1-2-2"/><path d="M20 14a2 2 0 0 1 2 2"/><path d="M20 22a2 2 0 0 0 2-2"/></symbol>
</svg>